<svg enable-background="new 0 0 24 24" viewBox="0 0 24 24" xmlns="http://www.w3.org/2000/svg"><path d="m0 18h7v-12h-7zm3-10h1c.55 0 1 .45 1 1s-.45 1-1 1h-1c-.55 0-1-.45-1-1s.45-1 1-1zm3-8h-5c-.55 0-1 .45-1 1v3h7v-3c0-.55-.45-1-1-1zm-6 23c0 .55.45 1 1 1h5c.55 0 1-.45 1-1v-3h-7zm15-23h-5c-.55 0-1 .45-1 1v3h7v-3c0-.55-.45-1-1-1zm8 0c-.55 0-1 .45-1 1v22c0 .55.45 1 1 1s1-.45 1-1v-22c0-.55-.45-1-1-1zm-4 0c-.55 0-1 .45-1 1v22c0 .55.45 1 1 1s1-.45 1-1v-22c0-.55-.45-1-1-1zm-10 23c0 .55.45 1 1 1h5c.55 0 1-.45 1-1v-3h-7zm0-5h7v-12h-7zm3-10h1c.55 0 1 .45 1 1s-.45 1-1 1h-1c-.55 0-1-.45-1-1s.45-1 1-1z"/></svg>