<svg enable-background="new 0 0 24 24" viewBox="0 0 24 24" xmlns="http://www.w3.org/2000/svg"><path d="m5 12h-4c-.553 0-1 .448-1 1s.447 1 1 1h4v2c0 .56.073 1.101.197 1.623-1.786.75-3.277 2.139-4.107 3.963-.229.503-.007 1.096.496 1.324.506.229 1.097.004 1.324-.496.612-1.346 1.707-2.375 3.02-2.937.892 1.554 2.363 2.729 4.116 3.24l1.007-6.042-6.053-6.054zm13.839 5.425c.097-.461.161-.935.161-1.425v-2h4c.553 0 1-.448 1-1s-.447-1-1-1h-4v-2.697c1.7-.768 3.111-2.13 3.91-3.889.229-.503.007-1.096-.496-1.324-.507-.23-1.097-.005-1.324.496-.944 2.074-3.025 3.414-5.302 3.414h-6.374l-2-2h9.586c0-2.761-2.239-5-5-5-2.633 0-4.767 2.042-4.962 4.624l-5.331-5.331c-.391-.391-1.023-.391-1.414 0s-.391 1.023 0 1.414l22 22c.195.195.451.293.707.293s.512-.098.707-.293c.391-.391.391-1.023 0-1.414zm-4.886 5.293c.767-.224 1.475-.581 2.109-1.034l-2.738-2.738z"/></svg>