<svg class="fill-current" enable-background="new 0 0 24 24" viewBox="0 0 24 24" xmlns="http://www.w3.org/2000/svg"><path d="m17 22c-1.104 0-2-.896-2-2h-6c0 1.104-.896 2-2 2-.552 0-1 .448-1 1s.448 1 1 1h10c.552 0 1-.448 1-1s-.448-1-1-1zm-3.121-9.293c.195.195.451.293.707.293s.512-.098.707-.293l3.707-3.707-3.707-3.707c-.391-.391-1.023-.391-1.414 0s-.391 1.023 0 1.414l2.293 2.293-2.293 2.293c-.391.391-.391 1.023 0 1.414zm-4.465.293c.256 0 .512-.098.707-.293.391-.391.391-1.023 0-1.414l-2.293-2.293 2.293-2.293c.391-.391.391-1.023 0-1.414s-1.023-.391-1.414 0l-3.707 3.707 3.707 3.707c.195.195.451.293.707.293zm12.586-13h-20c-1.104 0-2 .896-2 2v14c0 1.104.896 2 2 2h20c1.105 0 2-.896 2-2v-14c0-1.104-.895-2-2-2zm-1 15h-18v-12h18z"/></svg>