<svg enable-background="new 0 0 24 24" viewBox="0 0 24 24" xmlns="http://www.w3.org/2000/svg"><path d="m12.038 7c-2.628 0-4.766 1.327-4.962 3h9.924c-.196-1.673-2.333-3-4.962-3zm0-1c1.654 0 3-1.346 3-3s-1.346-3-3-3-3 1.346-3 3 1.346 3 3 3zm2.962 9c0 1.654 1.346 3 3 3s3-1.346 3-3-1.346-3-3-3-3 1.346-3 3zm-9 3c1.654 0 3-1.346 3-3s-1.346-3-3-3-3 1.346-3 3 1.346 3 3 3zm12 1c-2.757 0-5 1.455-5 3.244v1.756h10v-1.756c0-1.789-2.243-3.244-5-3.244zm-12 0c-2.757 0-5 1.455-5 3.244v1.756h10v-1.756c0-1.789-2.243-3.244-5-3.244z"/></svg>