<svg class="fill-current" enable-background="new 0 0 24 24" viewBox="0 0 24 24" xmlns="http://www.w3.org/2000/svg"><path d="m13 5.051v-1.328c.727-.423 1.169-1.28.938-2.225-.176-.72-.781-1.301-1.506-1.453-1.293-.271-2.432.709-2.432 1.955 0 .738.405 1.376 1 1.723v1.328c-5.053.501-9 4.764-9 9.949v5c0 2.209 1.791 4 4 4h12c2.209 0 4-1.791 4-4v-5c0-5.185-3.947-9.448-9-9.949zm-6 15.949h-.5c-.828 0-1.5-.672-1.5-1.5s.672-1.5 1.5-1.5h.5zm-1-8c0-1.105.896-2 2-2s2 .895 2 2c0 1.104-.896 2-2 2s-2-.896-2-2zm5 8h-2v-3h2zm4 0h-2v-3h2zm-1-8c0-1.105.896-2 2-2s2 .895 2 2c0 1.104-.896 2-2 2s-2-.896-2-2zm3.5 8h-.5v-3h.5c.828 0 1.5.672 1.5 1.5s-.672 1.5-1.5 1.5z"/></svg>