<svg enable-background="new 0 0 24 24" viewBox="0 0 24 24" xmlns="http://www.w3.org/2000/svg"><path d="m12.965 16h-1.977c-1.098 0-1.988.896-1.988 2.002v3.993c0 1.105.89 2.002 1.988 2.002h1.977c1.098 0 1.988-.896 1.988-2.002v-3.993c0-1.106-.89-2.002-1.988-2.002zm-8.969-4h-1.992c-1.107 0-2.004.897-2.004 2.003v7.994c0 1.106.897 2.003 2.004 2.003h1.993c1.106 0 2.003-.897 2.003-2.003v-7.994c0-1.106-.897-2.003-2.004-2.003zm17.95-1h-1.968c-1.092 0-1.978.896-1.978 2.003v8.991c0 1.106.886 2.003 1.978 2.003h1.968c1.093 0 1.978-.897 1.978-2.003v-8.991c.001-1.107-.885-2.003-1.978-2.003zm-3.288-11c-.636 0-.954.771-.505 1.222l1.571 1.576-7.763 7.786-6.977-6.999-4.692 4.706c-.389.391-.389 1.023 0 1.414s1.02.391 1.41 0l3.283-3.292 6.978 6.999 9.172-9.2 1.647 1.652c.449.45 1.218.131 1.218-.506v-5.358z"/></svg>